# File created by Blade
# Date/Time:  Tue Apr 07 20:53:18 2015
#---------------------------------------------------------
:version 1.10
:name HOM
:units
  mass 1.0
  length 1.000000
  angle deg
:documentation
     Acclaim Skeleton File
:root
   axis xyz
   order TX TY TZ RX RY RZ
   position 0.000000 0.000000 0.000000
   orientation 0 0 0
:bonedata
   begin
      id 1
      name Spine_dum
      direction 0.000000 1.000000 0.000000
      length 4.885285
      axis 0.0 0.0 0.0 xyz
   end
   begin
      id 2
      name LeftUpLeg_dum
      direction 1.000000 0.000000 0.000000
      length 2.672193
      axis 0.0 0.0 0.0 xyz
   end
   begin
      id 3
      name RightUpLeg_dum
      direction -1.000000 0.000000 0.000000
      length 2.672193
      axis 0.0 0.0 0.0 xyz
   end
   begin
      id 4
      name Spine
      direction 0.000000 1.000000 0.000000
      length 0.000000
      axis 0.0 0.0 0.0 xyz
      dof rx ry rz
   end
   begin
      id 5
      name Spine_dum1
      direction 0.000000 1.000000 0.000000
      length 16.494159
      axis 0.0 0.0 0.0 xyz
   end
   begin
      id 6
      name Spine_dum2
      direction 0.000000 1.000000 0.000000
      length 10.663448
      axis 0.0 0.0 0.0 xyz
   end
   begin
      id 7
      name Spine_dum3
      direction 0.000000 1.000000 0.000000
      length 10.663448
      axis 0.0 0.0 0.0 xyz
   end
   begin
      id 8
      name Head
      direction 0.000000 1.000000 0.000000
      length 4.527550
      axis 0.0 0.0 0.0 xyz
      dof rx ry rz
   end
   begin
      id 9
      name LeftShoulder
      direction 1.000000 0.000000 0.000000
      length 7.531907
      axis 0.0 0.0 -90.0 xyz
      dof rx ry rz
   end
   begin
      id 10
      name LeftArm
      direction 1.000000 0.000000 0.000000
      length 10.229199
      axis 0.0 0.0 -90.0 xyz
      dof rx ry rz
   end
   begin
      id 11
      name LeftForeArm
      direction 1.000000 0.000000 0.000000
      length 8.673495
      axis 0.0 0.0 -90.0 xyz
      dof ry rz rx
   end
   begin
      id 12
      name LeftHand
      direction 0.000000 0.000000 0.000000
      length 0.000000
      axis 0.0 0.0 -90.0 xyz
      dof rx ry rz
   end
   begin
      id 13
      name LeftHand_dum1
      direction 0.000000 0.000000 0.000000
      length 0.000000
      axis 0.0 0.0 -90.0 xyz
   end
   begin
      id 14
      name LeftHand_dum2
      direction 1.000000 0.000000 0.000000
      length 3.937000
      axis 0.0 0.0 -90.0 xyz
   end
   begin
      id 15
      name LeftHandThumb1
      direction 0.000000 0.000000 1.000000
      length 3.937000
      axis 0.0 0.0 -90.0 xyz
      dof rx rz ry
   end
   begin
      id 16
      name RightShoulder
      direction -1.000000 0.000000 0.000000
      length 7.531907
      axis 0.0 0.0 90.0 xyz
      dof rx ry rz
   end
   begin
      id 17
      name RightArm
      direction -1.000000 0.000000 0.000000
      length 10.229199
      axis 0.0 0.0 90.0 xyz
      dof rx ry rz
   end
   begin
      id 18
      name RightForeArm
      direction -1.000000 0.000000 0.000000
      length 8.673495
      axis 0.0 0.0 90.0 xyz
      dof ry rz rx
   end
   begin
      id 19
      name RightHand
      direction 0.000000 0.000000 0.000000
      length 0.000000
      axis 0.0 0.0 90.0 xyz
      dof rx ry rz
   end
   begin
      id 20
      name RightHand_dum1
      direction 0.000000 0.000000 0.000000
      length 0.000000
      axis 0.0 0.0 90.0 xyz
   end
   begin
      id 21
      name RightHand_dum2
      direction -1.000000 0.000000 0.000000
      length 3.937000
      axis 0.0 0.0 90.0 xyz
   end
   begin
      id 22
      name RightHandThumb1
      direction 0.000000 0.000000 1.000000
      length 3.937000
      axis 0.0 0.0 90.0 xyz
      dof rx rz ry
   end
   begin
      id 23
      name LeftUpLeg
      direction 0.000000 -1.000000 0.000000
      length 16.263388
      axis 0.0 0.0 0.0 xyz
      dof rx ry rz
   end
   begin
      id 24
      name LeftLeg
      direction 0.000000 -1.000000 0.000000
      length 14.328163
      axis 0.0 0.0 0.0 xyz
      dof rx ry rz
   end
   begin
      id 25
      name LeftFoot
      direction 0.000000 -0.258819 0.965926
      length 5.031290
      axis 15.0 0.0 0.0 xyz
      dof rx ry rz
   end
   begin
      id 26
      name LeftToeBase
      direction 0.000000 0.000000 1.000000
      length 2.952750
      axis 0.0 0.0 0.0 xyz
      dof rx ry rz
   end
   begin
      id 27
      name RightUpLeg
      direction 0.000000 -1.000000 0.000000
      length 16.263388
      axis 0.0 0.0 0.0 xyz
      dof rx ry rz
   end
   begin
      id 28
      name RightLeg
      direction 0.000000 -1.000000 0.000000
      length 14.328163
      axis 0.0 0.0 0.0 xyz
      dof rx ry rz
   end
   begin
      id 29
      name RightFoot
      direction 0.000000 -0.258819 0.965926
      length 5.031290
      axis 15.0 0.0 0.0 xyz
      dof rx ry rz
   end
   begin
      id 30
      name RightToeBase
      direction 0.000000 0.000000 1.000000
      length 2.952750
      axis 0.0 0.0 0.0 xyz
      dof rx ry rz
   end
:hierarchy
   begin
      root Spine_dum LeftUpLeg_dum RightUpLeg_dum
      Spine_dum Spine
      LeftUpLeg_dum LeftUpLeg
      RightUpLeg_dum RightUpLeg
      Spine Spine_dum1 Spine_dum2 Spine_dum3
      Spine_dum1 Head
      Spine_dum2 LeftShoulder
      Spine_dum3 RightShoulder
      LeftShoulder LeftArm
      LeftArm LeftForeArm
      LeftForeArm LeftHand
      LeftHand LeftHand_dum1 LeftHand_dum2
      LeftHand_dum1 LeftHandThumb1
      RightShoulder RightArm
      RightArm RightForeArm
      RightForeArm RightHand
      RightHand RightHand_dum1 RightHand_dum2
      RightHand_dum1 RightHandThumb1
      LeftUpLeg LeftLeg
      LeftLeg LeftFoot
      LeftFoot LeftToeBase
      RightUpLeg RightLeg
      RightLeg RightFoot
      RightFoot RightToeBase
   end

# File created by Blade
# Date/Time:  Tue Apr 07 20:53:11 2015
# Frame Rate: 120.000 fps
#------------------------------------------------------
:FULLY-SPECIFIED
:DEGREES
156
root -11.842014 32.472666 1.630565 112.708524 -85.077584 -109.799624
Spine 1.719889 -4.075721 7.245467
Head 33.238884 8.569152 -6.597589
LeftShoulder -24.931536 47.672161 3.149632
LeftArm 59.640958 -22.189810 -81.292788
LeftForeArm -3.619715 -0.000000 -1.578680
LeftHand 4.861208 -0.000000 -12.322893
LeftHandThumb1 -26.253704 0.000000 33.147579
RightShoulder -4.352030 -3.771103 -22.679876
RightArm 21.421937 -3.530797 74.143416
RightForeArm 5.896937 0.000000 3.213955
RightHand 3.232465 -0.000000 18.805915
RightHandThumb1 -24.326973 -0.000000 -32.862282
LeftUpLeg -27.261818 -3.075037 9.317329
LeftLeg 8.980493 -0.000000 -0.000000
LeftFoot 22.758661 19.693894 -6.462537
LeftToeBase -15.766637 -0.000000 0.000000
RightUpLeg 9.447954 17.016963 7.757926
RightLeg 5.923941 -0.000000 -0.000000
RightFoot -8.573015 5.140259 5.357097
RightToeBase -20.012291 -0.000000 0.000000
157
root -12.024668 32.457640 1.695302 115.321792 -85.046904 -112.291597
Spine 1.464122 -4.029907 7.232789
Head 33.341221 8.627892 -6.575289
LeftShoulder -25.010267 47.741448 3.240376
LeftArm 59.871290 -22.900525 -81.011115
LeftForeArm -3.478753 -0.000000 -1.728677
LeftHand 4.757483 -0.000000 -12.266594
LeftHandThumb1 -26.253704 0.000000 33.147579
RightShoulder -4.359720 -3.696134 -22.678398
RightArm 21.442385 -3.325859 73.869199
RightForeArm 5.912170 -0.000000 3.066642
RightHand 3.275567 -0.000000 18.774787
RightHandThumb1 -24.326973 -0.000000 -32.862282
LeftUpLeg -27.035147 -2.965891 9.034072
LeftLeg 9.284886 -0.000000 -0.000000
LeftFoot 21.293658 19.896322 -6.360152
LeftToeBase -14.497283 -0.000000 0.000000
RightUpLeg 9.664790 16.872321 7.601753
RightLeg 5.903565 -0.000000 -0.000000
RightFoot -8.576203 5.296309 5.404315
RightToeBase -20.248800 -0.000000 0.000000
158
root -12.211752 32.446394 1.761552 118.000621 -84.994912 -114.828143
Spine 1.190123 -3.982986 7.232393
Head 33.434525 8.666119 -6.556400
LeftShoulder -25.169189 47.835482 3.268520
LeftArm 60.173797 -23.698154 -80.870778
LeftForeArm -3.229059 0.000000 -1.806615
LeftHand 4.606785 -0.000000 -12.392453
LeftHandThumb1 -26.253704 0.000000 33.147579
RightShoulder -4.362123 -3.607440 -22.678349
RightArm 21.450934 -3.028968 73.618153
RightForeArm 5.738807 -0.000000 2.963488
RightHand 3.193539 -0.000000 18.781941
RightHandThumb1 -24.326973 -0.000000 -32.862282
LeftUpLeg -26.739804 -2.828358 8.744414
LeftLeg 9.354433 -0.000000 -0.000000
LeftFoot 19.927875 20.113045 -6.346767
LeftToeBase -14.209145 -0.000000 0.000000
RightUpLeg 9.894245 16.891148 7.469361
RightLeg 5.855141 -0.000000 -0.000000
RightFoot -8.535238 5.323008 5.393336
RightToeBase -20.188079 -0.000000 0.000000
159
root -12.398567 32.440079 1.827681 120.511184 -84.978760 -117.163214
Spine 0.867037 -3.937598 7.178044
Head 33.560219 8.662384 -6.506751
LeftShoulder -25.267767 47.884481 3.370530
LeftArm 60.415716 -24.492409 -80.709662
LeftForeArm -3.151636 -0.000000 -1.847489
LeftHand 4.604742 0.000000 -12.306904
LeftHandThumb1 -26.253704 0.000000 33.147579
RightShoulder -4.366649 -3.496309 -22.639698
RightArm 21.427385 -2.743285 73.340644
RightForeArm 5.510480 -0.000000 2.891553
RightHand 3.244557 -0.000000 18.803188
RightHandThumb1 -24.326973 -0.000000 -32.862282
LeftUpLeg -26.424241 -2.775109 8.455436
LeftLeg 9.164933 -0.000000 -0.000000
LeftFoot 18.933140 20.475816 -6.499285
LeftToeBase -14.112030 -0.000000 0.000000
RightUpLeg 10.088962 16.933033 7.311223
RightLeg 5.797775 -0.000000 -0.000000
RightFoot -8.417223 5.269587 5.386637
RightToeBase -20.484841 -0.000000 0.000000
160
root -12.587453 32.436933 1.896754 123.201211 -85.007651 -119.647557
Spine 0.506148 -3.889955 7.065470
Head 33.693007 8.684873 -6.402724
LeftShoulder -25.410526 47.950637 3.419690
LeftArm 60.669436 -25.278155 -80.448032
LeftForeArm -3.221339 -0.000000 -1.880210
LeftHand 4.774093 -0.000000 -12.214845
LeftHandThumb1 -26.253704 0.000000 33.147579
RightShoulder -4.382860 -3.396302 -22.600286
RightArm 21.418110 -2.428225 73.084601
RightForeArm 5.316463 0.000000 2.849763
RightHand 3.290553 -0.000000 18.878072
RightHandThumb1 -24.326973 -0.000000 -32.862282
LeftUpLeg -26.093772 -2.676942 8.082064
LeftLeg 8.788944 -0.000000 -0.000000
LeftFoot 18.124645 20.904028 -6.161477
LeftToeBase -13.636738 -0.000000 0.000000
RightUpLeg 10.209593 16.949654 7.077531
RightLeg 5.814055 -0.000000 -0.000000
RightFoot -8.342815 5.267922 5.510054
RightToeBase -20.616230 -0.000000 0.000000
161
root -12.775879 32.437974 1.966899 125.526769 -85.053547 -121.752263
Spine 0.134010 -3.872177 6.942056
Head 33.792634 8.635373 -6.323994
LeftShoulder -25.570900 48.001196 3.481964
LeftArm 60.973732 -26.096501 -80.314700
LeftForeArm -3.332136 -0.000000 -1.846630
LeftHand 4.521487 -0.000000 -12.245218
LeftHandThumb1 -26.253704 0.000000 33.147579
RightShoulder -4.437103 -3.328040 -22.532955
RightArm 21.494738 -2.094074 72.814377
RightForeArm 5.024604 -0.000000 2.776654
RightHand 3.209045 -0.000000 18.843991
RightHandThumb1 -24.326973 -0.000000 -32.862282
LeftUpLeg -25.760477 -2.575818 7.692496
LeftLeg 8.306590 -0.000000 -0.000000
LeftFoot 17.456473 21.295405 -5.990870
LeftToeBase -12.659581 -0.000000 0.000000
RightUpLeg 10.352641 17.132333 6.872694
RightLeg 5.780875 -0.000000 -0.000000
RightFoot -8.231698 5.094021 5.574738
RightToeBase -20.683176 -0.000000 0.000000
162
root -12.964763 32.441779 2.042430 128.310783 -85.171966 -124.316815
Spine -0.245615 -3.804403 6.722689
Head 33.923729 8.516947 -6.217182
LeftShoulder -25.610978 48.071984 3.637424
LeftArm 61.272830 -26.967906 -80.210030
LeftForeArm -3.316266 -0.000000 -1.766510
LeftHand 4.493925 -0.000000 -12.151608
LeftHandThumb1 -26.253704 0.000000 33.147579
RightShoulder -4.443951 -3.184330 -22.500543
RightArm 21.360415 -1.764735 72.568694
RightForeArm 4.736566 -0.000000 2.839096
RightHand 3.196993 0.000000 18.957983
RightHandThumb1 -24.326973 -0.000000 -32.862282
LeftUpLeg -25.429086 -2.473394 7.196793
LeftLeg 7.818275 -0.000000 -0.000000
LeftFoot 16.925470 21.629277 -5.687909
LeftToeBase -12.426006 -0.000000 0.000000
RightUpLeg 10.276097 16.870644 6.458288
RightLeg 6.107960 -0.000000 -0.000000
RightFoot -8.178287 5.421356 5.696777
RightToeBase -20.923156 -0.000000 0.000000
